# File created by Blade
# Date/Time:  Fri Jan 16 17:25:32 2015
#---------------------------------------------------------
:version 1.10
:name HOM
:units
  mass 1.0
  length 1.000000
  angle deg
:documentation
     Acclaim Skeleton File
:root
   axis xyz
   order TX TY TZ RX RY RZ
   position 0.000000 0.000000 0.000000
   orientation 0 0 0
:bonedata
   begin
      id 1
      name Spine_dum
      direction 0.000000 1.000000 0.000000
      length 7.170412
      axis 0.0 0.0 0.0 xyz
   end
   begin
      id 2
      name LeftUpLeg_dum
      direction 1.000000 0.000000 0.000000
      length 4.318350
      axis 0.0 0.0 0.0 xyz
   end
   begin
      id 3
      name RightUpLeg_dum
      direction -1.000000 0.000000 0.000000
      length 4.318350
      axis 0.0 0.0 0.0 xyz
   end
   begin
      id 4
      name Spine
      direction 0.000000 1.000000 0.000000
      length 0.000000
      axis 0.0 0.0 0.0 xyz
      dof rx ry rz
   end
   begin
      id 5
      name Spine_dum1
      direction 0.000000 1.000000 0.000000
      length 14.276153
      axis 0.0 0.0 0.0 xyz
   end
   begin
      id 6
      name Spine_dum2
      direction 0.000000 1.000000 0.000000
      length 10.718243
      axis 0.0 0.0 0.0 xyz
   end
   begin
      id 7
      name Spine_dum3
      direction 0.000000 1.000000 0.000000
      length 10.718243
      axis 0.0 0.0 0.0 xyz
   end
   begin
      id 8
      name Head
      direction 0.000000 1.000000 0.000000
      length 4.527550
      axis 0.0 0.0 0.0 xyz
      dof rx ry rz
   end
   begin
      id 9
      name LeftShoulder
      direction 1.000000 0.000000 0.000000
      length 7.058872
      axis 0.0 0.0 -90.0 xyz
      dof rx ry rz
   end
   begin
      id 10
      name LeftArm
      direction 1.000000 0.000000 0.000000
      length 10.955525
      axis 0.0 0.0 -90.0 xyz
      dof rx ry rz
   end
   begin
      id 11
      name LeftForeArm
      direction 1.000000 0.000000 0.000000
      length 8.193716
      axis 0.0 0.0 -90.0 xyz
      dof ry rz rx
   end
   begin
      id 12
      name LeftHand
      direction 0.000000 0.000000 0.000000
      length 0.000000
      axis 0.0 0.0 -90.0 xyz
      dof rx ry rz
   end
   begin
      id 13
      name LeftHand_dum1
      direction 0.000000 0.000000 0.000000
      length 0.000000
      axis 0.0 0.0 -90.0 xyz
   end
   begin
      id 14
      name LeftHand_dum2
      direction 1.000000 0.000000 0.000000
      length 3.937000
      axis 0.0 0.0 -90.0 xyz
   end
   begin
      id 15
      name LeftHandThumb1
      direction 0.000000 0.000000 1.000000
      length 3.937000
      axis 0.0 0.0 -90.0 xyz
      dof rx rz ry
   end
   begin
      id 16
      name RightShoulder
      direction -1.000000 0.000000 0.000000
      length 7.058872
      axis 0.0 0.0 90.0 xyz
      dof rx ry rz
   end
   begin
      id 17
      name RightArm
      direction -1.000000 0.000000 0.000000
      length 10.955525
      axis 0.0 0.0 90.0 xyz
      dof rx ry rz
   end
   begin
      id 18
      name RightForeArm
      direction -1.000000 0.000000 0.000000
      length 8.193716
      axis 0.0 0.0 90.0 xyz
      dof ry rz rx
   end
   begin
      id 19
      name RightHand
      direction 0.000000 0.000000 0.000000
      length 0.000000
      axis 0.0 0.0 90.0 xyz
      dof rx ry rz
   end
   begin
      id 20
      name RightHand_dum1
      direction 0.000000 0.000000 0.000000
      length 0.000000
      axis 0.0 0.0 90.0 xyz
   end
   begin
      id 21
      name RightHand_dum2
      direction -1.000000 0.000000 0.000000
      length 3.937000
      axis 0.0 0.0 90.0 xyz
   end
   begin
      id 22
      name RightHandThumb1
      direction 0.000000 0.000000 1.000000
      length 3.937000
      axis 0.0 0.0 90.0 xyz
      dof rx rz ry
   end
   begin
      id 23
      name LeftUpLeg
      direction 0.000000 -1.000000 0.000000
      length 17.323638
      axis 0.0 0.0 0.0 xyz
      dof rx ry rz
   end
   begin
      id 24
      name LeftLeg
      direction 0.000000 -1.000000 0.000000
      length 16.270368
      axis 0.0 0.0 0.0 xyz
      dof rx ry rz
   end
   begin
      id 25
      name LeftFoot
      direction 0.000000 -0.258819 0.965926
      length 4.922846
      axis 15.0 0.0 0.0 xyz
      dof rx ry rz
   end
   begin
      id 26
      name LeftToeBase
      direction 0.000000 0.000000 1.000000
      length 2.952750
      axis 0.0 0.0 0.0 xyz
      dof rx ry rz
   end
   begin
      id 27
      name RightUpLeg
      direction 0.000000 -1.000000 0.000000
      length 17.323638
      axis 0.0 0.0 0.0 xyz
      dof rx ry rz
   end
   begin
      id 28
      name RightLeg
      direction 0.000000 -1.000000 0.000000
      length 16.270368
      axis 0.0 0.0 0.0 xyz
      dof rx ry rz
   end
   begin
      id 29
      name RightFoot
      direction 0.000000 -0.258819 0.965926
      length 4.922846
      axis 15.0 0.0 0.0 xyz
      dof rx ry rz
   end
   begin
      id 30
      name RightToeBase
      direction 0.000000 0.000000 1.000000
      length 2.952750
      axis 0.0 0.0 0.0 xyz
      dof rx ry rz
   end
:hierarchy
   begin
      root Spine_dum LeftUpLeg_dum RightUpLeg_dum
      Spine_dum Spine
      LeftUpLeg_dum LeftUpLeg
      RightUpLeg_dum RightUpLeg
      Spine Spine_dum1 Spine_dum2 Spine_dum3
      Spine_dum1 Head
      Spine_dum2 LeftShoulder
      Spine_dum3 RightShoulder
      LeftShoulder LeftArm
      LeftArm LeftForeArm
      LeftForeArm LeftHand
      LeftHand LeftHand_dum1 LeftHand_dum2
      LeftHand_dum1 LeftHandThumb1
      RightShoulder RightArm
      RightArm RightForeArm
      RightForeArm RightHand
      RightHand RightHand_dum1 RightHand_dum2
      RightHand_dum1 RightHandThumb1
      LeftUpLeg LeftLeg
      LeftLeg LeftFoot
      LeftFoot LeftToeBase
      RightUpLeg RightLeg
      RightLeg RightFoot
      RightFoot RightToeBase
   end

# File created by Blade
# Date/Time:  Fri Jan 16 17:25:22 2015
# Frame Rate: 120.000 fps
#------------------------------------------------------
:FULLY-SPECIFIED
:DEGREES
144
root -5.567824 35.291282 -10.962069 -1.885109 -8.100011 -5.640509
Spine 2.723124 0.496062 9.199655
Head 3.929710 13.357455 -6.743393
LeftShoulder -23.167912 12.233553 -18.520188
LeftArm 19.675779 -21.893241 -74.380118
LeftForeArm 7.767752 -0.000000 10.277490
LeftHand -1.948723 -0.000000 -11.104294
LeftHandThumb1 -26.253704 0.000000 33.147579
RightShoulder -4.905135 -0.666741 1.379178
RightArm -1.184169 -4.213237 65.238784
RightForeArm -23.911225 -0.000000 23.171139
RightHand 0.967619 -0.000000 12.041592
RightHandThumb1 -24.326973 -0.000000 -32.862282
LeftUpLeg 10.651965 16.998408 7.201142
LeftLeg -8.614862 -0.000000 0.000000
LeftFoot -14.344628 28.056561 -8.152532
LeftToeBase 22.607258 -0.000000 -0.000000
RightUpLeg 6.558217 -6.102081 2.126396
RightLeg -4.021421 -0.000000 0.000000
RightFoot -3.265266 -21.621439 6.025197
RightToeBase 13.638136 -0.000000 -0.000000
145
root -5.572175 35.290109 -10.953718 -1.889224 -8.061150 -5.642249
Spine 2.643232 0.476478 9.194071
Head 3.949497 13.224427 -6.669596
LeftShoulder -23.085674 12.218820 -18.604734
LeftArm 19.343455 -21.304141 -74.963045
LeftForeArm 7.816684 -0.000000 9.917107
LeftHand -2.165727 -0.000000 -11.033721
LeftHandThumb1 -26.253704 0.000000 33.147579
RightShoulder -4.889177 -0.906345 1.582560
RightArm -1.119641 -4.919770 66.030944
RightForeArm -24.321943 -0.000000 22.927535
RightHand 1.202562 -0.000000 12.193797
RightHandThumb1 -24.326973 -0.000000 -32.862282
LeftUpLeg 10.658551 16.960223 7.209453
LeftLeg -8.607888 -0.000000 0.000000
LeftFoot -14.359109 28.058542 -8.143596
LeftToeBase 22.610319 -0.000000 -0.000000
RightUpLeg 6.586478 -6.123095 2.132359
RightLeg -4.031400 -0.000000 0.000000
RightFoot -3.293366 -21.643499 6.030090
RightToeBase 13.655108 -0.000000 -0.000000
146
root -5.573426 35.288923 -10.949534 -1.891269 -7.985485 -5.637764
Spine 2.580819 0.389765 9.175114
Head 3.926042 13.104665 -6.580687
LeftShoulder -23.042861 12.235150 -18.705782
LeftArm 19.019268 -20.647470 -75.524289
LeftForeArm 7.701171 0.000000 9.720628
LeftHand -2.297601 0.000000 -10.852790
LeftHandThumb1 -26.253704 0.000000 33.147579
RightShoulder -4.926912 -1.168292 1.792480
RightArm -0.995880 -6.821596 66.684411
RightForeArm -23.437179 -0.000000 22.900937
RightHand 0.854024 -0.000000 12.079475
RightHandThumb1 -24.326973 -0.000000 -32.862282
LeftUpLeg 10.624391 16.897820 7.200138
LeftLeg -8.565341 -0.000000 0.000000
LeftFoot -14.383713 28.067600 -8.121928
LeftToeBase 22.595179 -0.000000 -0.000000
RightUpLeg 6.604744 -6.161961 2.129261
RightLeg -4.037068 -0.000000 0.000000
RightFoot -3.318176 -21.676348 6.019337
RightToeBase 13.699678 -0.000000 -0.000000
147
root -5.577632 35.286451 -10.940395 -1.903066 -7.922794 -5.655143
Spine 2.521417 0.307570 9.173614
Head 3.907019 13.013795 -6.473362
LeftShoulder -23.035114 12.293801 -18.806169
LeftArm 18.696051 -19.792632 -75.985726
LeftForeArm 7.259321 -0.000000 9.616242
LeftHand -2.424481 -0.000000 -10.660760
LeftHandThumb1 -26.253704 0.000000 33.147579
RightShoulder -4.979507 -1.465969 2.010762
RightArm -0.872449 -8.443336 67.325968
RightForeArm -22.853772 -0.000000 22.947726
RightHand 0.679254 -0.000000 11.643993
RightHandThumb1 -24.326973 -0.000000 -32.862282
LeftUpLeg 10.638861 16.855539 7.227941
LeftLeg -8.563338 -0.000000 0.000000
LeftFoot -14.404385 28.054034 -8.078577
LeftToeBase 22.631089 -0.000000 -0.000000
RightUpLeg 6.652792 -6.172479 2.150842
RightLeg -4.061349 -0.000000 0.000000
RightFoot -3.333959 -21.738005 6.020627
RightToeBase 13.660682 -0.000000 -0.000000
148
root -5.576168 35.284485 -10.930282 -1.908474 -7.931063 -5.655814
Spine 2.465082 0.292702 9.176419
Head 3.874158 12.932908 -6.402615
LeftShoulder -23.035317 12.363878 -18.922207
LeftArm 18.367454 -19.059336 -76.473352
LeftForeArm 7.089612 -0.000000 9.641353
LeftHand -2.540255 -0.000000 -10.523321
LeftHandThumb1 -26.253704 0.000000 33.147579
RightShoulder -5.064424 -1.755190 2.183048
RightArm -0.723723 -9.615815 68.062481
RightForeArm -22.674369 -0.000000 22.980951
RightHand 0.340671 0.000000 11.088790
RightHandThumb1 -24.326973 -0.000000 -32.862282
LeftUpLeg 10.670152 16.875169 7.232817
LeftLeg -8.572424 -0.000000 0.000000
LeftFoot -14.419683 28.041803 -8.058829
LeftToeBase 22.641599 -0.000000 -0.000000
RightUpLeg 6.673295 -6.126169 2.146062
RightLeg -4.057814 -0.000000 0.000000
RightFoot -3.365404 -21.759644 6.008776
RightToeBase 13.694832 -0.000000 -0.000000
149
root -5.570370 35.282318 -10.920024 -1.940501 -7.908923 -5.633431
Spine 2.442574 0.235596 9.182880
Head 3.818005 12.845266 -6.393075
LeftShoulder -23.053989 12.450320 -19.046532
LeftArm 17.971043 -17.841435 -76.797208
LeftForeArm 6.015670 -0.000000 9.814795
LeftHand -2.584605 -0.000000 -10.106596
LeftHandThumb1 -26.253704 0.000000 33.147579
RightShoulder -5.140781 -2.004213 2.318220
RightArm -0.590829 -10.694937 68.754023
RightForeArm -22.529453 -0.000000 22.999542
RightHand 0.281968 0.000000 10.954774
RightHandThumb1 -24.326973 -0.000000 -32.862282
LeftUpLeg 10.711997 16.848893 7.207188
LeftLeg -8.576464 -0.000000 0.000000
LeftFoot -14.441115 28.045827 -8.066985
LeftToeBase 22.663390 -0.000000 -0.000000
RightUpLeg 6.722011 -6.088579 2.107714
RightLeg -4.057235 -0.000000 0.000000
RightFoot -3.404663 -21.790333 6.020587
RightToeBase 13.689032 -0.000000 -0.000000
150
root -5.575548 35.279995 -10.890734 -1.943652 -7.804361 -5.627207
Spine 2.262487 0.102315 9.162381
Head 3.921944 12.784005 -6.288888
LeftShoulder -23.133758 12.630386 -19.191325
LeftArm 18.046397 -18.973205 -77.954184
LeftForeArm 7.928755 -0.000000 9.688229
LeftHand -2.427720 -0.000000 -10.511055
LeftHandThumb1 -26.253704 0.000000 33.147579
RightShoulder -5.205685 -2.326897 2.478829
RightArm -0.518886 -11.235961 69.490568
RightForeArm -22.991049 -0.000000 23.048520
RightHand 0.406155 0.000000 10.933437
RightHandThumb1 -24.326973 -0.000000 -32.862282
LeftUpLeg 10.758655 16.807412 7.215849
LeftLeg -8.614446 -0.000000 0.000000
LeftFoot -14.441767 27.988036 -8.073727
LeftToeBase 22.645719 -0.000000 -0.000000
RightUpLeg 6.839516 -6.143746 2.097356
RightLeg -4.171123 -0.000000 0.000000
RightFoot -3.411961 -21.842006 6.020028
RightToeBase 13.697064 -0.000000 -0.000000
151
root -5.568233 35.277144 -10.872642 -1.960022 -7.819686 -5.617937
Spine 2.184609 0.051600 9.198644
Head 3.941344 12.757951 -6.295278
LeftShoulder -23.229249 12.742983 -19.352755
LeftArm 18.160134 -19.968377 -79.094933
LeftForeArm 9.394509 -0.000000 9.490020
LeftHand -2.129220 -0.000000 -10.750485
LeftHandThumb1 -26.253704 0.000000 33.147579
RightShoulder -5.244865 -2.579888 2.503725
RightArm -0.421572 -11.916599 70.286140
RightForeArm -23.253080 -0.000000 23.059833
RightHand 0.513176 -0.000000 10.522308
RightHandThumb1 -24.326973 -0.000000 -32.862282
LeftUpLeg 10.832205 16.843559 7.205955
LeftLeg -8.664233 -0.000000 0.000000
LeftFoot -14.444151 27.975241 -8.060814
LeftToeBase 22.633412 -0.000000 -0.000000
RightUpLeg 6.888459 -6.102561 2.066853
RightLeg -4.180546 -0.000000 0.000000
RightFoot -3.460517 -21.837514 6.076849
RightToeBase 13.690853 -0.000000 -0.000000
152
root -5.555520 35.273428 -10.861946 -1.996470 -8.168051 -5.622674
Spine 2.241824 0.313422 9.312167
Head 3.863358 12.754543 -6.385971
LeftShoulder -23.273417 12.851107 -19.521241
LeftArm 17.715141 -18.692164 -79.345107
LeftForeArm 8.446025 -0.000000 9.917045
LeftHand -2.117373 -0.000000 -10.238059
LeftHandThumb1 -26.253704 0.000000 33.147579
RightShoulder -5.306018 -2.868708 2.556229
RightArm -0.257275 -13.203385 70.862736
RightForeArm -22.983503 -0.000000 23.299340
RightHand 0.422535 -0.000000 10.017333
RightHandThumb1 -24.326973 -0.000000 -32.862282
LeftUpLeg 11.043686 17.243310 7.246666
LeftLeg -8.800277 -0.000000 0.000000
LeftFoot -14.431043 27.937559 -8.071777
LeftToeBase 22.651369 -0.000000 -0.000000
RightUpLeg 6.856168 -5.690538 2.058656
RightLeg -4.064483 -0.000000 0.000000
RightFoot -3.525531 -21.876059 6.069464
RightToeBase 13.708207 -0.000000 -0.000000
153
root -5.549858 35.277804 -10.860184 -1.823461 -8.340426 -5.764704
Spine 2.009425 0.385674 9.589742
Head 3.885012 12.788234 -6.500460
LeftShoulder -23.444426 13.017281 -19.805624
LeftArm 17.430943 -17.551146 -79.569798
LeftForeArm 7.966570 0.000000 10.251196
LeftHand -2.003732 -0.000000 -9.918356
LeftHandThumb1 -26.253704 0.000000 33.147579
RightShoulder -5.350483 -3.169205 2.571200
RightArm -0.095250 -14.333707 71.450611
RightForeArm -22.937000 -0.000000 23.424267
RightHand 0.459810 -0.000000 9.445191
RightHandThumb1 -24.326973 -0.000000 -32.862282
LeftUpLeg 10.942373 17.431940 7.351025
LeftLeg -8.819291 -0.000000 0.000000
LeftFoot -14.455049 27.951520 -7.996705
LeftToeBase 22.663733 -0.000000 -0.000000
RightUpLeg 6.644346 -5.446027 2.212184
RightLeg -3.974153 -0.000000 0.000000
RightFoot -3.491427 -21.889911 6.292320
RightToeBase 13.626722 -0.000000 -0.000000
154
root -5.553997 35.276077 -10.850623 -1.844045 -8.341606 -5.775137
Spine 1.979803 0.325891 9.601407
Head 3.835413 12.770208 -6.435404
LeftShoulder -23.504434 13.157583 -19.834722
LeftArm 17.066203 -16.166748 -79.768884
LeftForeArm 7.076789 0.000000 10.704427
LeftHand -1.388964 -0.000000 -9.087191
LeftHandThumb1 -26.253704 0.000000 33.147579
RightShoulder -5.431371 -3.417534 2.674191
RightArm 0.070671 -15.471214 72.066956
RightForeArm -23.081308 0.000000 23.571669
RightHand 0.445338 -0.000000 9.563803
RightHandThumb1 -24.326973 -0.000000 -32.862282
LeftUpLeg 10.982728 17.437811 7.379738
LeftLeg -8.816318 -0.000000 0.000000
LeftFoot -14.479599 27.948216 -7.972480
LeftToeBase 22.721611 -0.000000 -0.000000
RightUpLeg 6.680379 -5.401338 2.229186
RightLeg -3.969031 -0.000000 0.000000
RightFoot -3.521531 -21.943324 6.277986
RightToeBase 13.667646 -0.000000 -0.000000
